PathFileType	4	(X/Y/Z)	C:/Users/beibeiliu/ov580/test_trc/User1\sequence.18_training_dense_right.trc
DataRate	CameraRate	NumFrames	NumMarkers	Units	OrigDataRate	OrigDataStartFrame	OrigNumFrames
120	120	8	19	mm	120	144	286
Frame#	Time	ThumbCMC			ThumbMCP			ThumbIP			ThumbTip			IndexMCP			IndexPIP			IndexTip			MiddleMCP			MiddlePIP			MiddleTip			RingMCP			RingPIP			RingTip			PinkyMCP			PinkyPIP			PinkyTip			BackHand1			BackHand2			BackHand3	
		X0	Y0	Z0	X1	Y1	Z1	X2	Y2	Z2	X3	Y3	Z3	X4	Y4	Z4	X5	Y5	Z5	X6	Y6	Z6	X7	Y7	Z7	X8	Y8	Z8	X9	Y9	Z9	X10	Y10	Z10	X11	Y11	Z11	X12	Y12	Z12	X13	Y13	Z13	X14	Y14	Z14	X15	Y15	Z15	X16	Y16	Z16	X17	Y17	Z17	X18	Y18	Z18	
143	1.19167	161.21	51.4003	36.7809	146.711	47.9636	0.227246	160.784	37.7971	-29.8182	184.268	15.2129	-33.1214	199.532	72.8752	-30.847	182.403	54.2509	-55	165.619	39.9866	-27.5603	219.766	56.1207	-36.2102	199.191	36.6241	-57.5574	179.658	25.7531	-22.0353	229.776	36.3916	-31.1981	206.233	15.0479	-50.4238	189.469	7.69527	-24.2047	236.666	14.5596	-16.4259	217.198	6.15851	-38.5846	189.889	1.07253	-17.1476	228.792	37.6918	29.6507	217.744	24.5679	65.0729	200.537	55.4866	44.0189	
144	1.2	152.455	44.0671	41.1076	139.294	40.7113	-0.253676	154.401	32.9734	-26.423	176.7	13.2798	-35.3802	188.549	72.297	-36.1851	176.548	48.6075	-56.4355	156.841	37.0459	-31.8014	207.353	59.505	-37.2108	190.332	35.4945	-57.8654	175.422	21.9789	-25.2758	222.967	39.7665	-36.6371	206.525	18.734	-52.7105	189.274	5.09787	-22.614	234.445	19.7522	-20.332	210.828	7.95866	-39.2385	191.215	-0.69655	-20.0879	222.594	39.95	26.2439	215.043	29.9263	64.1704	194.538	58.8151	42.6661	
145	1.20833	148.962	39.9178	38.7963	138.22	34.8995	-0.597382	148.496	27.2032	-27.7549	174.718	11.3928	-36.1279	182.547	68.0941	-37.8331	172.284	47.7315	-59.2611	153.481	31.0904	-32.0594	202.718	59.4892	-39.5177	186.928	34.2964	-61.1645	175.018	17.1454	-26.5446	218.029	42.7732	-37.4415	201.13	17.2987	-53.9737	190.09	3.79239	-24.0103	229.967	24.8542	-20.5929	212.418	10.1783	-40.3378	193.212	-7.10304	-18.8324	221.211	40.9479	28.3273	213.84	33.498	60.8567	190.137	56.9949	42.0345	
146	1.21667	146.751	37.3111	34.7012	135.573	27.6505	1.6542	148.204	22.5761	-28.5651	170.651	7.64663	-36.2884	174.084	66.5369	-41.5171	167.383	45.3588	-61.3483	153.976	24.2477	-30.4984	197.375	56.2253	-42.1621	184.472	28.8513	-61.597	173.556	14.2353	-24.0957	215.415	40.7364	-37.1424	200.298	14.8143	-53.8105	189.304	1.34897	-26.0763	228.632	24.6429	-25.8806	209.537	6.78032	-40.0429	192.059	-4.18935	-15.2163	215.433	47.1736	24.0963	212.249	34.5645	57.1589	183.457	54.437	40.9852	
147	1.225	142.555	32.9407	34.1576	133.499	21.0681	0.260878	146.023	16.1349	-27.3325	170.682	4.69345	-36.4987	172.803	60.1423	-40.1989	166.524	36.5523	-62.3059	152.064	19.0753	-32.0956	196.296	52.1744	-46.926	180.651	22.8738	-62.5365	169.336	11.4558	-26.0481	211.128	39.6982	-39.6332	200.888	13.1198	-55.8387	189.072	-1.78107	-26.6562	224.481	25.3866	-22.477	212.118	5.25251	-40.7854	193.294	-10.9534	-18.7514	212.038	45.8474	24.5553	208.112	37.698	54.3517	180.775	52.7163	39.2451	
148	1.23333	142.307	28.4289	34.66	131.387	16.3971	-2.3745	145.004	11.7728	-31.1481	170.17	-0.482888	-39.3528	167.106	56.9652	-44.2807	163.346	29.0718	-62.1849	148.318	14.0331	-33.1685	190.289	49.7132	-48.2324	182.934	21.3679	-64.9069	172.389	6.76331	-26.5414	207.943	38.4963	-42.7452	201.264	10.2186	-57.0072	187.757	-2.93729	-27.7979	224.625	24.6049	-27.3375	211.997	0.218995	-41.0944	194.176	-11.1599	-14.725	210.376	44.9346	20.8468	205.664	38.8413	55.7059	178.086	53.2397	38.0582	
149	1.24167	137.924	24.3094	35.3558	129.991	11.7124	2.11121	142.437	6.60465	-30.7591	170.83	-2.17511	-35.3445	166.345	52.9575	-42.6246	164.302	28.8941	-63.1186	153.082	8.95863	-35.7638	186.872	48.3134	-46.4808	179.817	18.8073	-64.3369	172.577	3.52451	-26.5654	205.132	37.8057	-42.0149	199.614	10.817	-56.8782	189.338	-5.27674	-24.3771	222.229	24.0124	-27.9572	210.66	0.811382	-41.0564	194.502	-12.4294	-14.7749	206.301	46.5764	21.8915	205.798	39.9325	55.0817	170.781	52.3357	34.8499	
150	1.25	138.422	22.0042	36.7696	130.508	10.2626	-0.620105	142.603	4.62039	-26.7416	171.077	-3.90983	-38.6178	160.382	51.6064	-42.5412	159.314	28.374	-65.7391	147.224	8.73856	-33.1572	186.322	45.9945	-49.0507	180.165	14.4216	-62.873	172.789	2.77355	-25.4405	205.56	37.5899	-40.7832	198.034	6.38041	-56.0845	188.968	-5.98151	-28.2611	220.259	25.8095	-25.1999	212.453	3.79904	-41.9729	196.402	-14.2969	-15.9061	203.696	48.4383	19.5279	202.004	41.8879	52.9153	170.159	51.0638	33.7846	
